<?xml version="1.0" standalone="no"?>
<!DOCTYPE svg PUBLIC "-//W3C//DTD SVG 20010904//EN"
 "http://www.w3.org/TR/2001/REC-SVG-20010904/DTD/svg10.dtd">
<svg version="1.0" xmlns="http://www.w3.org/2000/svg"
 width="250.000000pt" height="250.000000pt" viewBox="0 0 250.000000 250.000000"
 preserveAspectRatio="xMidYMid meet">
<metadata>
Created by potrace 1.14, written by Peter Selinger 2001-2017
</metadata>
<g transform="translate(0.000000,250.000000) scale(0.100000,-0.100000)"
fill="#000000" stroke="none">
<path d="M324 2457 l-29 -25 0 -1094 c-1 -656 3 -1104 8 -1122 11 -33 52 -53
102 -51 20 1 35 -3 35 -9 0 -7 3 -7 8 1 5 8 13 9 22 3 8 -5 21 -5 31 1 11 6
20 5 24 -1 4 -7 12 -7 25 0 12 7 20 6 22 -1 2 -7 12 -7 32 0 21 9 27 8 23 -1
-2 -7 -9 -12 -15 -11 -6 2 -9 -4 -5 -13 4 -12 10 -10 24 13 11 15 19 22 19 16
0 -9 7 -10 26 -3 22 9 25 8 20 -5 -3 -9 1 -18 9 -21 8 -4 12 -10 9 -15 -3 -5
10 -1 29 8 19 10 31 20 26 21 -5 2 -16 -1 -24 -8 -10 -8 -19 -9 -32 -1 -10 6
-16 11 -13 12 11 4 56 10 73 10 9 0 17 5 17 11 0 6 3 8 7 5 9 -9 34 13 27 24
-3 5 0 9 6 9 7 0 10 7 6 15 -3 8 0 15 6 15 9 0 9 3 1 11 -8 8 -9 19 -2 38 7
17 7 27 0 29 -6 2 -9 8 -5 13 3 5 14 5 26 -2 15 -8 19 -8 14 0 -4 6 -2 11 3
11 6 0 11 5 11 11 0 5 -5 7 -10 4 -6 -3 -10 -1 -10 4 0 6 -5 11 -11 11 -8 0
-8 -5 1 -15 7 -8 8 -15 2 -15 -23 0 -32 26 -16 49 9 12 13 25 10 28 -3 4 -6 1
-6 -5 0 -7 -5 -12 -12 -12 -9 0 -9 3 0 12 7 7 8 17 2 29 -7 12 -6 22 5 33 11
11 12 15 2 19 -6 2 -9 8 -5 12 4 4 13 4 21 -1 7 -5 2 1 -11 12 -19 17 -22 26
-14 39 5 10 7 27 4 37 -3 11 1 24 9 29 11 7 11 9 1 9 -7 0 -10 4 -7 10 3 6 2
10 -4 10 -15 0 -1 63 17 78 20 16 40 16 24 0 -22 -22 -12 -27 12 -5 23 20 25
47 4 47 -6 0 -5 -6 2 -15 16 -20 -4 -20 -24 0 -20 20 -32 19 -15 -2 12 -15 12
-16 -4 -10 -10 4 -21 7 -23 7 -2 0 3 16 11 36 12 29 12 34 1 25 -11 -9 -12 -6
-8 16 3 16 10 31 16 35 7 5 7 8 -2 8 -7 0 -10 5 -7 10 3 6 1 10 -6 10 -9 0 -9
3 0 14 7 8 8 17 3 20 -10 6 -9 32 2 58 6 13 14 14 37 8 18 -5 29 -5 29 1 0 6
4 8 10 4 5 -3 7 -13 4 -23 -5 -16 -5 -16 6 1 6 9 19 17 30 17 10 0 21 -8 23
-17 4 -15 5 -15 6 2 1 18 7 20 58 17 32 -2 66 -3 75 -3 9 0 19 -8 21 -17 4
-14 5 -13 6 3 1 18 7 20 55 18 30 0 59 -4 65 -7 5 -4 12 -2 16 3 3 6 11 9 18
7 48 -15 48 -15 35 -35 -7 -11 -15 -18 -19 -15 -4 2 -12 -3 -18 -10 -9 -11 -9
-16 0 -22 7 -4 17 0 25 10 8 11 14 13 19 7 8 -14 25 -14 25 -1 0 6 -5 9 -11 8
-6 -2 -14 3 -17 11 -2 8 0 11 6 7 7 -4 9 3 6 20 -5 25 -3 26 12 13 12 -9 15
-10 10 -1 -4 6 -2 12 3 12 6 0 11 -8 12 -17 0 -17 1 -17 8 0 4 10 10 18 15 18
13 0 35 -35 29 -45 -4 -5 -2 -6 4 -3 6 4 15 -5 21 -18 14 -29 25 -31 43 -7 7
9 9 14 5 10 -5 -4 -15 -3 -23 3 -7 6 -13 8 -13 4 0 -4 -10 4 -21 19 -12 15
-18 30 -14 34 4 4 14 -2 22 -13 13 -16 15 -17 10 -2 -4 9 -3 17 1 18 4 0 16 2
27 4 10 2 26 -2 34 -8 12 -10 14 -9 8 7 -5 13 -3 17 7 13 8 -3 17 -3 20 1 8 7
33 13 68 14 15 1 25 5 22 10 -3 5 -2 8 3 6 4 -1 28 5 52 12 40 13 45 12 57 -5
8 -10 14 -14 14 -8 0 7 -4 15 -10 18 -22 13 2 37 34 34 5 0 12 3 15 8 3 5 32
26 64 46 31 21 57 43 57 49 0 6 3 8 7 5 3 -4 13 2 20 13 8 11 19 18 24 15 5
-4 9 2 9 12 0 10 13 32 30 49 16 18 26 35 23 38 -4 3 -1 6 5 6 7 0 12 9 12 20
0 11 4 20 10 20 5 0 13 12 16 28 4 15 11 33 17 40 5 6 6 12 1 12 -4 0 1 7 12
16 10 8 13 12 5 8 -10 -5 -12 -3 -7 5 5 7 15 10 24 6 9 -3 13 -3 9 1 -4 4 1
13 11 20 9 8 12 14 5 14 -6 0 -15 -4 -18 -10 -9 -15 -25 -12 -25 6 0 8 4 13 9
9 5 -3 19 7 30 21 12 15 21 23 21 19 0 -4 7 -2 15 5 12 10 13 16 5 24 -8 8
-15 6 -24 -6 -12 -17 -14 -17 -29 0 -15 17 -15 20 -1 41 15 21 17 21 29 4 10
-13 17 -15 25 -7 8 8 7 14 -5 24 -8 7 -15 9 -15 4 0 -4 -7 1 -15 12 -11 14
-14 15 -9 3 3 -10 1 -20 -4 -23 -13 -8 -13 106 0 122 7 8 7 12 -1 12 -8 0 -8
5 1 19 7 11 17 17 23 13 5 -3 4 2 -4 11 -7 9 -20 17 -27 17 -20 0 -17 18 4 23
16 4 16 5 0 6 -10 0 -18 7 -19 14 0 6 -2 19 -4 27 -2 8 -5 27 -8 42 -3 14 -14
47 -26 72 -18 43 -19 46 -3 56 14 9 13 10 -7 4 -16 -4 -21 -3 -17 5 4 6 3 11
-2 11 -5 0 -14 10 -19 23 -19 39 -124 147 -182 186 -105 70 -227 116 -391 147
-19 4 -283 9 -586 11 l-551 5 -29 -25z m557 -407 c6 0 7 4 4 10 -4 7 2 7 19 0
14 -5 28 -6 30 -1 3 4 15 7 28 5 13 -1 26 -3 31 -3 4 -1 7 -5 7 -11 0 -5 -8
-7 -17 -3 -14 5 -15 3 -6 -7 14 -15 33 -5 33 18 0 13 2 13 16 -4 8 -10 13 -14
10 -7 -4 6 0 13 6 16 16 5 38 -2 38 -14 0 -4 -8 -6 -17 -2 -14 5 -15 3 -6 -7
14 -15 33 -5 33 18 0 13 2 13 14 -3 14 -19 15 -19 36 0 l23 20 -8 -25 -8 -25
22 25 c13 14 20 20 17 14 -3 -7 4 -11 19 -11 14 0 23 3 20 6 -10 18 42 4 53
-14 11 -17 13 -17 8 -2 -3 10 -3 17 1 15 50 -24 63 -33 63 -44 0 -18 30 -26
36 -9 4 8 10 12 15 9 5 -3 12 2 15 10 5 13 10 13 42 -2 41 -19 54 -31 45 -46
-4 -5 1 -7 10 -3 17 6 42 -24 30 -37 -3 -3 2 -6 11 -6 12 0 16 -5 12 -16 -3
-8 -2 -13 3 -10 8 6 21 -21 37 -74 20 -69 5 -210 -29 -276 -37 -71 -132 -128
-240 -143 -67 -9 -441 -6 -457 4 -5 3 -10 2 -10 -3 0 -6 -9 -8 -20 -5 -11 3
-20 10 -20 15 0 6 8 7 18 4 16 -6 16 -5 0 8 -19 14 -26 52 -8 41 6 -4 8 -11 5
-16 -4 -5 -1 -9 4 -9 15 0 14 16 -1 32 -21 22 -19 44 4 56 20 11 21 11 2 7
-18 -5 -20 0 -21 45 -1 32 3 50 10 50 7 0 6 4 -3 10 -8 5 -11 13 -6 17 4 4 14
-1 22 -11 8 -11 14 -15 14 -8 0 6 -8 17 -18 24 -19 14 -27 58 -11 58 5 0 9 5
9 11 0 5 -4 7 -10 4 -6 -4 -9 5 -8 20 2 18 7 24 18 20 11 -4 10 -1 -2 9 -25
18 -22 28 5 22 21 -6 21 -6 1 5 -17 9 -20 20 -20 70 0 50 2 59 15 54 12 -4 12
-2 -1 9 -25 18 -22 28 5 22 22 -6 22 -6 1 5 -13 6 -21 21 -21 35 0 23 15 28
30 9 5 -6 7 -4 4 5 -2 8 -9 16 -15 16 -25 3 -26 6 -7 13 11 5 22 4 23 0 2 -5
8 -9 13 -9z m249 10 c0 -5 -5 -10 -11 -10 -5 0 -7 5 -4 10 3 6 8 10 11 10 2 0
4 -4 4 -10z m227 -6 c13 -4 20 -11 16 -18 -3 -6 0 -6 8 2 18 16 29 15 29 -4 0
-8 -4 -13 -9 -9 -6 3 -14 -2 -19 -11 -9 -15 -11 -15 -21 5 -7 12 -22 26 -34
31 -25 10 -3 13 30 4z m817 -229 c-4 -8 -10 -12 -15 -9 -11 6 -2 24 11 24 5 0
7 -7 4 -15z m41 -175 c3 -5 1 -10 -4 -10 -6 0 -11 5 -11 10 0 6 2 10 4 10 3 0
8 -4 11 -10z m5 -54 c0 -3 -4 -8 -10 -11 -5 -3 -10 -1 -10 4 0 6 5 11 10 11 6
0 10 -2 10 -4z m-44 -17 c3 -6 0 -18 -9 -26 -10 -10 -17 -11 -21 -4 -4 6 0 11
11 12 10 0 13 3 6 6 -15 6 -17 23 -4 23 6 0 13 -5 17 -11z m-856 -649 c0 -5
-5 -10 -11 -10 -5 0 -7 5 -4 10 3 6 8 10 11 10 2 0 4 -4 4 -10z m175 0 c3 -5
1 -10 -4 -10 -6 0 -11 5 -11 10 0 6 2 10 4 10 3 0 8 -4 11 -10z"/>
<path d="M895 2040 c3 -5 8 -10 11 -10 2 0 4 5 4 10 0 6 -5 10 -11 10 -5 0 -7
-4 -4 -10z"/>
<path d="M1253 2039 c3 -9 0 -22 -6 -28 -17 -17 -31 -13 -17 4 7 9 10 18 6 22
-3 3 -6 1 -6 -7 0 -10 -3 -10 -15 0 -9 7 -18 10 -22 6 -3 -3 -1 -6 6 -6 7 0
10 -4 6 -9 -3 -5 5 -17 17 -25 12 -9 19 -16 14 -16 -5 0 -3 -7 4 -15 10 -12
16 -13 24 -5 8 8 6 15 -6 24 -16 12 -16 14 0 29 13 14 14 19 3 29 -11 11 -13
10 -8 -3z m7 -69 c0 -5 -2 -10 -4 -10 -3 0 -8 5 -11 10 -3 6 -1 10 4 10 6 0
11 -4 11 -10z"/>
<path d="M926 2023 c2 -7 -1 -13 -6 -13 -6 0 -10 -4 -10 -10 0 -17 14 -11 28
11 8 12 9 18 4 15 -6 -3 -12 -3 -15 1 -2 5 -2 2 -1 -4z"/>
<path d="M1166 2023 c-6 -14 -5 -15 5 -6 7 7 10 15 7 18 -3 3 -9 -2 -12 -12z"/>
<path d="M880 2020 c0 -5 5 -10 11 -10 5 0 7 5 4 10 -3 6 -8 10 -11 10 -2 0
-4 -4 -4 -10z"/>
<path d="M967 2019 c7 -7 15 -10 18 -7 3 3 -2 9 -12 12 -14 6 -15 5 -6 -5z"/>
<path d="M1032 2012 c20 -13 24 -22 18 -32 -5 -8 -15 -15 -21 -15 -6 0 -16
-10 -20 -23 -6 -15 -5 -21 1 -17 6 3 10 13 10 21 0 8 5 12 11 9 6 -4 8 -14 4
-22 -5 -13 -3 -14 10 -3 9 8 12 16 6 19 -9 6 11 43 20 38 3 -1 -3 5 -13 14 -9
9 -15 18 -13 21 2 2 -6 5 -17 5 -20 2 -20 1 4 -15z"/>
<path d="M1080 2020 c-8 -5 -10 -10 -5 -10 6 0 17 5 25 10 8 5 11 10 5 10 -5
0 -17 -5 -25 -10z"/>
<path d="M1127 2024 c7 -3 9 -13 6 -22 -5 -13 -3 -14 7 -5 14 13 5 33 -13 32
-9 0 -9 -2 0 -5z"/>
<path d="M1294 2019 c-3 -6 1 -17 10 -25 9 -8 14 -11 11 -8 -3 4 3 13 13 21
15 13 15 13 -5 3 -14 -6 -23 -7 -23 -1 0 5 6 12 13 14 9 4 9 6 0 6 -6 1 -15
-4 -19 -10z"/>
<path d="M1416 1998 c-9 -12 -16 -19 -16 -14 0 5 -6 3 -13 -3 -8 -6 -18 -7
-23 -3 -4 4 -2 -1 5 -10 18 -24 29 -22 43 7 6 13 15 22 21 18 6 -3 7 -1 3 5
-3 5 0 13 6 15 9 4 10 6 1 6 -6 1 -19 -9 -27 -21z m-16 -28 c0 -5 -5 -10 -11
-10 -5 0 -7 5 -4 10 3 6 8 10 11 10 2 0 4 -4 4 -10z"/>
<path d="M855 2000 c3 -5 13 -10 21 -10 8 0 14 -5 14 -12 0 -6 3 -8 7 -4 5 4
-1 14 -11 22 -23 16 -40 19 -31 4z"/>
<path d="M954 2002 c3 -5 0 -13 -6 -15 -8 -3 -6 -6 5 -6 19 -1 23 14 5 25 -6
4 -8 3 -4 -4z"/>
<path d="M989 1986 c-9 -19 -17 -23 -38 -20 -23 4 -24 3 -9 -9 10 -8 17 -16
15 -19 -1 -2 8 7 21 20 12 13 22 20 22 16 0 -3 6 -1 13 5 8 6 18 7 23 3 4 -4
2 1 -5 11 -18 23 -29 22 -42 -7z m31 10 c0 -3 -4 -8 -10 -11 -5 -3 -10 -1 -10
4 0 6 5 11 10 11 6 0 10 -2 10 -4z"/>
<path d="M1095 2000 c-3 -5 -2 -10 4 -10 5 0 13 5 16 10 3 6 2 10 -4 10 -5 0
-13 -4 -16 -10z"/>
<path d="M1171 1987 c-5 -14 -16 -27 -23 -30 -9 -4 -10 -6 -1 -6 15 -1 48 47
40 56 -4 3 -11 -6 -16 -20z"/>
<path d="M1270 2005 c0 -5 5 -17 10 -25 5 -8 10 -10 10 -5 0 6 -5 17 -10 25
-5 8 -10 11 -10 5z"/>
<path d="M1455 2000 c-3 -5 -1 -10 4 -10 6 0 11 5 11 10 0 6 -2 10 -4 10 -3 0
-8 -4 -11 -10z"/>
<path d="M1477 1987 c-3 -8 -2 -20 3 -26 5 -9 8 -4 8 13 0 29 -3 32 -11 13z"/>
<path d="M1197 1983 c-12 -11 -7 -23 9 -23 14 0 14 -3 4 -15 -7 -9 -10 -18 -6
-22 3 -3 6 -1 6 6 0 7 4 10 9 6 20 -11 20 14 1 28 -11 7 -17 17 -13 20 3 4 4
7 1 7 -2 0 -8 -3 -11 -7z"/>
<path d="M1330 1980 c0 -5 5 -10 10 -10 6 0 10 5 10 10 0 6 -4 10 -10 10 -5 0
-10 -4 -10 -10z"/>
<path d="M1107 1973 c9 -3 9 -11 -3 -31 -15 -25 -15 -25 0 -8 14 18 20 15 17
-6 0 -4 6 -5 15 -1 15 5 15 7 1 15 -9 5 -14 15 -11 23 4 10 0 15 -12 14 -11 0
-13 -3 -7 -6z"/>
<path d="M1433 1968 c2 -7 10 -12 16 -10 15 3 14 -11 -1 -27 -11 -10 -10 -11
5 -6 20 8 22 26 5 43 -16 16 -31 15 -25 0z"/>
<path d="M1070 1960 c0 -5 5 -10 10 -10 6 0 10 5 10 10 0 6 -4 10 -10 10 -5 0
-10 -4 -10 -10z"/>
<path d="M1294 1956 c-3 -9 -9 -14 -13 -11 -4 2 -8 -3 -8 -11 0 -12 5 -11 21
5 11 11 17 23 13 27 -4 4 -9 -1 -13 -10z"/>
<path d="M1520 1962 c0 -5 -10 -14 -22 -21 l-23 -11 22 6 c19 4 22 2 16 -13
-3 -10 -3 -15 1 -12 9 8 18 59 11 59 -3 0 -5 -4 -5 -8z"/>
<path d="M870 1950 c0 -5 7 -7 15 -4 8 4 15 8 15 10 0 2 -7 4 -15 4 -8 0 -15
-4 -15 -10z"/>
<path d="M1311 1937 c-13 -21 -12 -21 5 -5 10 10 16 20 13 22 -3 3 -11 -5 -18
-17z"/>
<path d="M1340 1938 c-11 -22 -10 -22 4 -4 14 18 20 15 17 -6 0 -4 6 -5 15 -1
8 3 14 6 12 7 -2 1 -11 7 -20 14 -14 11 -18 10 -28 -10z"/>
<path d="M900 1940 c-8 -5 -10 -10 -5 -10 6 0 17 5 25 10 8 5 11 10 5 10 -5 0
-17 -5 -25 -10z"/>
<path d="M979 1933 c-13 -16 -12 -17 4 -4 9 7 17 15 17 17 0 8 -8 3 -21 -13z"/>
<path d="M1167 1936 c-4 -10 -1 -13 9 -9 7 3 14 9 14 14 0 14 -17 10 -23 -5z"/>
<path d="M1407 1936 c-4 -10 -1 -13 9 -9 15 6 19 23 5 23 -5 0 -11 -7 -14 -14z"/>
<path d="M864 1915 c11 -8 16 -15 11 -15 -5 0 -4 -5 2 -11 6 -6 9 -18 6 -25
-3 -8 0 -14 6 -14 6 0 10 3 9 8 -3 14 14 42 22 37 5 -3 11 -1 15 4 3 6 13 7
23 4 13 -4 13 -2 -3 10 -27 22 -34 21 -47 -8 -6 -13 -15 -22 -20 -19 -4 3 -5
10 -2 16 7 10 -13 28 -31 28 -5 -1 -1 -7 9 -15z m76 1 c0 -3 -4 -8 -10 -11 -5
-3 -10 -1 -10 4 0 6 5 11 10 11 6 0 10 -2 10 -4z"/>
<path d="M848 1883 c6 -2 9 -10 6 -15 -4 -7 -2 -8 5 -4 13 9 5 26 -12 25 -9 0
-8 -2 1 -6z"/>
<path d="M932 1868 c-2 -10 -8 -18 -13 -18 -5 0 -9 -4 -9 -10 0 -21 20 -9 26
15 5 19 10 23 18 15 9 -7 13 -6 13 3 0 21 -29 16 -35 -5z"/>
<path d="M855 1840 c3 -5 13 -10 21 -10 8 0 14 -5 14 -12 0 -6 3 -8 7 -4 5 4
-1 14 -11 22 -23 16 -40 19 -31 4z"/>
<path d="M948 1823 c7 -3 16 -2 19 1 4 3 -2 6 -13 5 -11 0 -14 -3 -6 -6z"/>
<path d="M945 1794 c11 -8 19 -18 18 -22 -1 -4 0 -8 1 -9 1 -1 2 8 2 20 0 16
-6 23 -20 24 -21 2 -21 2 -1 -13z"/>
<path d="M870 1790 c0 -5 7 -7 15 -4 8 4 15 8 15 10 0 2 -7 4 -15 4 -8 0 -15
-4 -15 -10z"/>
<path d="M897 1775 c-11 -7 -26 -11 -35 -8 -14 5 -15 3 -5 -7 10 -11 17 -10
38 4 22 15 26 15 31 1 3 -8 10 -15 15 -15 5 0 4 9 -3 20 -15 23 -17 24 -41 5z"/>
<path d="M910 1749 c0 -5 -5 -7 -11 -3 -8 4 -7 0 1 -15 6 -12 16 -19 22 -15 6
4 8 -2 4 -17 -3 -13 -3 -18 0 -11 3 6 10 9 16 6 6 -4 5 3 -2 15 -6 12 -16 19
-22 15 -6 -4 -8 1 -3 15 3 11 4 21 1 21 -3 0 -6 -5 -6 -11z"/>
<path d="M950 1740 c-11 -7 -11 -10 -2 -10 7 0 11 -4 7 -9 -3 -5 -2 -12 3 -15
4 -2 8 6 8 20 0 13 0 24 0 24 -1 0 -8 -5 -16 -10z"/>
<path d="M860 1725 c-9 -10 -9 -15 -1 -15 6 0 11 5 11 11 0 5 5 7 12 3 7 -4 8
-3 4 4 -9 15 -11 15 -26 -3z"/>
<path d="M876 1693 c-4 -9 -2 -21 4 -27 8 -8 9 -5 4 9 -7 18 -6 18 9 6 11 -9
17 -10 17 -2 0 6 -5 11 -11 11 -5 0 -7 5 -4 10 3 6 2 10 -3 10 -6 0 -13 -8
-16 -17z"/>
<path d="M944 1672 c-11 -10 -25 -17 -32 -16 -7 1 -8 0 -2 -3 5 -2 7 -9 4 -15
-3 -5 3 -4 15 4 12 7 21 16 21 21 0 4 4 6 8 3 5 -3 9 1 9 9 0 18 1 19 -23 -3z"/>
<path d="M886 1637 c3 -10 9 -15 12 -12 3 3 0 11 -7 18 -10 9 -11 8 -5 -6z"/>
<path d="M957 1643 c-10 -9 -9 -23 1 -23 5 0 9 7 9 15 0 17 -1 18 -10 8z"/>
<path d="M840 1622 c0 -4 9 -8 20 -9 11 -1 20 2 20 5 0 4 -9 8 -20 9 -11 1
-20 -2 -20 -5z"/>
<path d="M923 1622 c-9 -6 -7 -11 7 -20 12 -7 20 -8 20 -2 0 5 -5 10 -11 10
-5 0 -7 5 -4 10 7 12 4 12 -12 2z"/>
<path d="M890 1603 c0 -4 5 -15 10 -23 8 -13 10 -13 10 2 0 9 -4 20 -10 23 -5
3 -10 3 -10 -2z"/>
<path d="M846 1585 c-3 -10 -4 -20 -1 -23 3 -3 5 1 5 8 0 11 3 11 12 2 15 -15
28 -15 28 -1 0 5 -4 8 -9 4 -6 -3 -14 2 -19 11 -8 15 -10 15 -16 -1z"/>
<path d="M957 1583 c-10 -9 -9 -23 1 -23 5 0 9 7 9 15 0 17 -1 18 -10 8z"/>
<path d="M882 1539 c-18 -12 -30 -24 -27 -27 2 -3 13 2 23 11 23 21 39 22 22
2 -9 -10 -9 -15 -1 -15 10 0 12 6 10 27 0 4 8 10 18 14 13 6 14 8 3 8 -8 0
-30 -9 -48 -20z"/>
<path d="M942 1541 c-11 -6 -10 -10 4 -15 9 -3 19 -4 22 -1 3 3 -1 5 -9 5 -11
0 -11 2 1 10 8 5 11 10 5 10 -5 0 -16 -4 -23 -9z"/>
<path d="M917 1506 c-5 -11 -3 -15 5 -10 8 5 9 2 5 -9 -9 -24 0 -21 14 4 6 13
7 19 1 15 -6 -3 -12 -1 -14 6 -3 7 -7 5 -11 -6z"/>
<path d="M868 1493 c6 -2 18 -2 25 0 6 3 1 5 -13 5 -14 0 -19 -2 -12 -5z"/>
<path d="M900 1465 c0 -8 4 -15 10 -15 5 0 7 7 4 15 -4 8 -8 15 -10 15 -2 0
-4 -7 -4 -15z"/>
<path d="M948 1463 c7 -3 16 -2 19 1 4 3 -2 6 -13 5 -11 0 -14 -3 -6 -6z"/>
<path d="M870 1440 c0 -6 4 -9 9 -6 5 4 12 1 14 -4 3 -6 4 -5 3 2 -3 15 -26
23 -26 8z"/>
<path d="M930 1439 c0 -5 -5 -7 -12 -3 -7 4 -8 3 -4 -5 6 -9 11 -9 22 0 17 14
18 19 4 19 -5 0 -10 -5 -10 -11z"/>
<path d="M2116 2061 c-7 -11 22 -36 31 -28 3 4 -2 9 -11 13 -9 3 -13 10 -10
15 3 5 3 9 0 9 -3 0 -7 -4 -10 -9z"/>
<path d="M2155 2020 c-3 -5 -1 -10 4 -10 6 0 11 5 11 10 0 6 -2 10 -4 10 -3 0
-8 -4 -11 -10z"/>
<path d="M2136 1997 c3 -10 9 -15 12 -12 3 3 0 11 -7 18 -10 9 -11 8 -5 -6z"/>
<path d="M2174 1998 c-4 -6 1 -17 10 -24 16 -11 15 -13 -6 -28 -12 -9 -18 -16
-12 -16 6 0 19 9 29 20 16 17 16 20 2 26 -9 3 -13 12 -10 20 6 17 -3 19 -13 2z"/>
<path d="M2150 1960 c0 -5 5 -10 10 -10 6 0 10 5 10 10 0 6 -4 10 -10 10 -5 0
-10 -4 -10 -10z"/>
<path d="M2205 1936 c-27 -31 -39 -49 -28 -43 6 4 13 4 16 0 2 -5 2 -2 1 5 -2
6 1 12 5 12 9 0 24 30 19 35 -2 2 -7 -2 -13 -9z"/>
<path d="M2220 1875 c7 -8 17 -15 22 -15 5 0 3 7 -6 15 -8 8 -18 15 -22 15 -3
0 -1 -7 6 -15z"/>
<path d="M2190 1860 c0 -5 5 -10 10 -10 6 0 10 5 10 10 0 6 -4 10 -10 10 -5 0
-10 -4 -10 -10z"/>
<path d="M2216 1841 c-3 -5 0 -16 8 -23 11 -11 11 -17 1 -31 -6 -9 -14 -16
-16 -14 -3 1 6 -8 20 -20 31 -27 64 -28 47 -1 -6 10 -15 18 -20 18 -4 0 -3 -7
4 -15 15 -18 1 -19 -21 -2 -20 15 -13 38 9 30 15 -4 15 -3 2 6 -8 6 -11 11 -6
11 5 0 1 9 -9 20 -18 19 -17 20 4 20 12 0 20 -4 17 -9 -3 -4 1 -17 10 -27 14
-18 14 -17 3 6 -7 14 -10 27 -8 30 2 3 -6 6 -18 8 -11 2 -24 -1 -27 -7z"/>
<path d="M2190 1800 c0 -5 5 -10 10 -10 6 0 10 5 10 10 0 6 -4 10 -10 10 -5 0
-10 -4 -10 -10z"/>
<path d="M2175 1760 c-10 -16 3 -27 31 -27 17 0 22 2 13 7 -6 5 -18 6 -26 3
-9 -4 -11 0 -7 11 7 18 -1 22 -11 6z"/>
<path d="M2193 1705 c0 -8 2 -13 5 -10 2 2 13 -6 23 -18 l19 -22 19 22 c10 12
21 20 23 18 3 -3 5 2 5 10 0 8 -4 15 -9 15 -4 0 -8 -5 -8 -12 0 -9 -3 -9 -12
0 -15 15 -28 16 -28 2 0 -5 5 -9 11 -7 6 1 13 -3 15 -8 2 -6 -5 -11 -16 -11
-11 0 -23 8 -26 18 -7 22 -21 24 -21 3z"/>
<path d="M2283 1674 c-7 -3 -9 -12 -6 -20 4 -10 0 -12 -13 -8 -15 6 -16 4 -7
-6 14 -15 29 -7 36 20 3 11 4 20 4 19 -1 0 -7 -3 -14 -5z"/>
<path d="M2170 1620 c0 -5 5 -10 10 -10 6 0 10 5 10 10 0 6 -4 10 -10 10 -5 0
-10 -4 -10 -10z"/>
<path d="M2230 1620 c0 -5 6 -13 14 -17 11 -6 8 -14 -15 -34 -16 -14 -31 -25
-34 -23 -3 2 -1 -1 5 -8 6 -8 5 -17 -3 -27 -11 -14 -10 -14 6 -2 11 9 17 10
17 2 0 -6 -11 -16 -25 -21 -18 -7 -23 -14 -18 -27 6 -16 5 -17 -13 -3 -10 8
-16 11 -12 6 4 -5 -3 -17 -15 -28 -12 -11 -16 -17 -9 -13 6 3 12 2 12 -4 0 -5
9 -13 20 -16 11 -4 18 -10 15 -15 -3 -5 -13 -6 -22 -3 -15 6 -16 5 -3 -9 8 -9
17 -12 18 -7 2 5 8 7 12 4 19 -12 19 15 0 28 -11 7 -17 17 -12 22 4 5 2 5 -5
1 -6 -3 -14 -2 -17 3 -10 16 19 19 39 5 10 -8 15 -14 11 -14 -5 0 -3 -7 4 -15
10 -12 16 -13 24 -5 8 8 6 15 -7 25 -12 8 -14 15 -8 20 14 8 14 25 1 25 -5 0
-9 -5 -7 -11 1 -6 -3 -13 -8 -15 -6 -2 -11 5 -11 16 0 11 6 20 12 20 20 0 38
29 26 43 -7 8 -7 18 -2 27 6 8 10 13 11 10 6 -34 9 -43 15 -48 4 -4 4 1 1 11
-7 20 3 23 21 5 9 -9 7 -14 -6 -24 -14 -11 -15 -15 -3 -26 12 -11 13 -10 7 6
-5 14 -2 17 9 12 9 -3 13 -2 10 4 -3 6 0 10 7 10 7 0 -5 12 -26 28 -28 19 -34
28 -22 30 9 2 16 8 16 13 0 6 4 8 10 4 5 -3 7 -12 4 -19 -3 -7 3 -19 13 -26
15 -12 16 -12 6 0 -7 8 -13 18 -13 23 0 4 6 5 13 2 6 -4 -2 7 -20 23 -17 17
-29 33 -26 36 4 3 1 6 -5 6 -7 0 -12 -4 -12 -10z m-10 -210 c0 -5 -2 -10 -4
-10 -3 0 -8 5 -11 10 -3 6 -1 10 4 10 6 0 11 -4 11 -10z"/>
<path d="M2280 1620 c-9 -6 -10 -10 -3 -10 6 0 15 5 18 10 8 12 4 12 -15 0z"/>
<path d="M2230 1487 c0 -4 7 -19 16 -32 18 -27 40 -24 47 8 6 22 5 22 -10 -1
l-16 -23 -18 28 c-11 15 -19 24 -19 20z"/>
<path d="M2230 1445 c0 -5 5 -17 10 -25 5 -8 10 -10 10 -5 0 6 -5 17 -10 25
-5 8 -10 11 -10 5z"/>
<path d="M2260 1405 c-13 -16 -6 -35 13 -34 9 0 9 2 0 6 -7 2 -13 9 -13 14 0
4 6 7 13 5 6 -1 9 -1 4 1 -4 3 -5 9 -1 14 8 14 -2 10 -16 -6z"/>
<path d="M2116 1394 c-6 -16 23 -48 34 -37 3 2 -3 9 -12 14 -10 5 -15 16 -12
24 4 8 4 15 1 15 -3 0 -8 -7 -11 -16z"/>
<path d="M2225 1380 c-7 -12 2 -30 16 -30 5 0 9 5 9 11 0 5 -5 7 -12 3 -8 -5
-9 -2 -5 9 7 19 2 23 -8 7z"/>
<path d="M2090 1363 c0 -4 5 -15 10 -23 8 -13 10 -13 10 2 0 9 -4 20 -10 23
-5 3 -10 3 -10 -2z"/>
<path d="M2188 1356 c-10 -7 -14 -17 -10 -21 4 -5 -1 -5 -10 -2 -10 4 -18 2
-18 -3 0 -16 30 -12 36 4 3 8 11 14 17 12 7 -1 9 -1 4 1 -4 3 -5 9 -1 14 7 12
2 11 -18 -5z"/>
<path d="M2260 1345 c-7 -9 -11 -17 -9 -20 3 -2 10 5 17 15 14 24 10 26 -8 5z"/>
<path d="M2210 1321 c0 -5 6 -12 13 -15 10 -5 10 -7 0 -12 -7 -3 -13 -10 -13
-15 0 -6 6 -7 13 -2 6 4 15 8 19 8 19 0 16 14 -7 29 -14 9 -25 12 -25 7z"/>
<path d="M2100 1310 c-8 -5 -11 -12 -7 -17 5 -4 11 -3 15 3 4 6 14 14 22 17
13 5 13 5 0 6 -8 0 -22 -3 -30 -9z"/>
<path d="M2192 1300 c0 -14 2 -19 5 -12 2 6 2 18 0 25 -3 6 -5 1 -5 -13z"/>
<path d="M2050 1279 c0 -5 -4 -8 -9 -4 -5 3 -12 1 -15 -4 -8 -13 22 -7 36 7 9
9 9 12 0 12 -7 0 -12 -5 -12 -11z"/>
<path d="M2114 1275 c-5 -11 -10 -13 -19 -5 -18 15 -31 -6 -15 -25 9 -10 7
-16 -7 -24 -10 -6 -13 -11 -6 -11 6 0 20 11 31 25 11 13 22 21 26 17 4 -3 4 1
0 11 -5 13 -2 16 12 10 12 -4 15 -3 10 5 -10 17 -26 15 -32 -3z m-14 -26 c0
-6 -4 -7 -10 -4 -5 3 -10 11 -10 16 0 6 5 7 10 4 6 -3 10 -11 10 -16z"/>
<path d="M2170 1273 c5 -2 8 -9 4 -14 -3 -5 0 -9 6 -9 15 0 7 23 -8 26 -7 1
-8 0 -2 -3z"/>
<path d="M2137 1240 c-8 -11 -17 -17 -22 -12 -5 4 -5 1 -1 -5 10 -18 26 -16
26 2 0 9 6 12 15 9 13 -5 13 -8 0 -27 -8 -12 -15 -28 -15 -37 0 -8 8 1 18 20
15 28 16 37 5 46 -7 6 -10 14 -6 17 3 4 4 7 0 7 -3 0 -12 -9 -20 -20z"/>
<path d="M2040 1240 c20 -13 33 -13 25 0 -3 6 -14 10 -23 10 -15 0 -15 -2 -2
-10z"/>
<path d="M2195 1220 c4 -14 2 -20 -6 -18 -7 2 -15 -6 -17 -17 -6 -30 -21 -44
-40 -39 -14 5 -14 3 1 -6 15 -10 21 -8 32 7 8 10 15 26 15 36 0 9 5 16 12 15
7 -2 13 7 14 20 1 12 -3 22 -8 22 -5 0 -6 -9 -3 -20z"/>
<path d="M2020 1215 c0 -13 -4 -14 -22 -5 -21 10 -21 10 -6 -3 10 -8 17 -16
15 -18 -1 -3 5 3 14 13 9 9 20 14 24 10 5 -4 5 -1 1 6 -10 17 -26 15 -26 -3z"/>
<path d="M2095 1200 c3 -5 14 -10 23 -10 15 0 15 2 2 10 -20 13 -33 13 -25 0z"/>
<path d="M2050 1191 c0 -7 -4 -9 -10 -6 -6 3 -7 -1 -4 -10 5 -11 2 -14 -12 -9
-16 6 -17 5 -6 -7 11 -12 15 -11 26 3 10 13 15 15 24 6 7 -7 12 -8 12 -2 0 5
4 2 10 -6 5 -8 11 -12 14 -10 2 3 -4 16 -15 30 -16 21 -18 22 -13 5 6 -20 5
-20 -10 -1 -9 11 -16 14 -16 7z"/>
<path d="M1956 1178 c3 -4 11 -5 19 -1 21 7 19 12 -4 10 -11 0 -18 -5 -15 -9z"/>
<path d="M1935 1160 c3 -5 8 -10 11 -10 2 0 4 5 4 10 0 6 -5 10 -11 10 -5 0
-7 -4 -4 -10z"/>
<path d="M1964 1144 c-15 -22 -19 -23 -26 -10 -5 9 -13 16 -18 16 -6 0 -2 -9
7 -19 18 -22 43 -17 43 8 1 14 2 14 11 -2 11 -18 29 -14 29 6 0 8 -3 8 -9 -1
-7 -11 -9 -11 -14 2 -3 8 -1 17 6 20 9 3 9 5 0 5 -7 1 -20 -11 -29 -25z"/>
<path d="M1885 1140 c-3 -5 -1 -10 4 -10 6 0 11 5 11 10 0 6 -2 10 -4 10 -3 0
-8 -4 -11 -10z"/>
<path d="M2050 1140 c0 -5 5 -10 10 -10 6 0 10 5 10 10 0 6 -4 10 -10 10 -5 0
-10 -4 -10 -10z"/>
<path d="M1905 1110 c-4 -12 -2 -27 3 -32 8 -8 9 -4 6 13 -5 19 -4 21 5 9 13
-18 15 -1 2 19 -7 11 -10 9 -16 -9z"/>
<path d="M2016 1121 c-3 -5 1 -14 9 -21 8 -7 15 -9 15 -4 0 5 7 -1 15 -13 10
-14 22 -20 31 -16 12 4 13 8 3 14 -7 4 -17 5 -21 3 -4 -3 -8 -1 -8 5 0 5 8 15
18 20 9 6 12 11 5 11 -6 0 -15 -5 -19 -11 -5 -8 -10 -6 -16 5 -10 18 -24 21
-32 7z m24 -11 c0 -5 -2 -10 -4 -10 -3 0 -8 5 -11 10 -3 6 -1 10 4 10 6 0 11
-4 11 -10z"/>
<path d="M2102 1110 c-7 -11 -8 -20 -3 -20 5 0 12 6 14 13 4 9 8 8 16 -3 12
-17 14 -10 5 14 -8 21 -17 20 -32 -4z"/>
<path d="M1868 1113 c7 -3 16 -2 19 1 4 3 -2 6 -13 5 -11 0 -14 -3 -6 -6z"/>
<path d="M1836 1095 c-3 -9 -2 -14 3 -10 5 3 11 -1 14 -7 2 -7 7 -11 10 -8 3
3 0 13 -8 23 -11 16 -13 16 -19 2z"/>
<path d="M1970 1100 c0 -5 5 -10 10 -10 6 0 10 5 10 10 0 6 -4 10 -10 10 -5 0
-10 -4 -10 -10z"/>
<path d="M1810 1091 c0 -7 -4 -9 -10 -6 -5 3 -10 1 -10 -4 0 -6 4 -11 9 -11
13 0 25 20 17 27 -3 4 -6 1 -6 -6z"/>
<path d="M1940 1084 c-11 -12 -10 -18 3 -31 15 -15 15 -17 -1 -29 -14 -11 -15
-15 -3 -26 12 -11 13 -10 7 6 -5 14 -2 17 9 12 9 -3 13 -2 10 4 -3 6 0 10 7
10 7 0 2 7 -10 16 -12 8 -22 20 -22 26 0 6 9 3 20 -7 18 -17 20 -17 14 -2 -3
9 -10 17 -16 17 -5 0 -6 5 -3 10 10 16 -1 12 -15 -6z"/>
<path d="M2005 1093 c3 -7 1 -13 -4 -13 -6 0 -11 -10 -10 -22 0 -22 1 -22 10
2 9 23 11 23 20 8 11 -20 29 -24 29 -6 0 6 -3 9 -6 5 -4 -3 -15 4 -26 16 -11
12 -17 16 -13 10z"/>
<path d="M1820 1060 c0 -5 5 -10 10 -10 6 0 10 5 10 10 0 6 -4 10 -10 10 -5 0
-10 -4 -10 -10z"/>
<path d="M1880 1060 c0 -5 5 -10 10 -10 6 0 10 5 10 10 0 6 -4 10 -10 10 -5 0
-10 -4 -10 -10z"/>
<path d="M1694 1038 c-5 -7 -2 -9 9 -5 11 4 18 -1 23 -15 6 -19 8 -19 15 -5 5
9 15 15 22 13 6 -1 9 -1 4 1 -4 3 -4 10 0 16 3 7 -3 4 -14 -6 -18 -16 -21 -16
-26 -2 -7 18 -23 20 -33 3z"/>
<path d="M1866 1025 c20 -30 20 -30 20 -6 0 11 -4 17 -8 15 -4 -3 -8 0 -8 5 0
6 -5 11 -10 11 -6 0 -3 -11 6 -25z"/>
<path d="M1905 1030 c-4 -11 0 -29 9 -42 19 -27 21 -17 4 13 -10 17 -10 23 0
26 14 5 16 23 3 23 -5 0 -12 -9 -16 -20z"/>
<path d="M2010 1043 c0 -4 5 -15 10 -23 8 -13 10 -13 10 2 0 9 -4 20 -10 23
-5 3 -10 3 -10 -2z"/>
<path d="M2055 1039 c-4 -6 -5 -12 -2 -15 2 -3 7 2 10 11 7 17 1 20 -8 4z"/>
<path d="M1810 1029 c0 -5 -4 -7 -10 -4 -6 3 -7 -1 -4 -10 5 -11 2 -14 -12 -9
-16 6 -17 5 -6 -7 11 -12 15 -11 26 3 7 10 16 15 20 11 4 -4 4 0 0 10 -7 19
-14 22 -14 6z"/>
<path d="M1842 1015 c6 -14 15 -25 20 -25 5 0 1 11 -8 25 -9 14 -18 25 -20 25
-2 0 2 -11 8 -25z"/>
<path d="M1630 1020 c0 -5 5 -10 11 -10 5 0 7 5 4 10 -3 6 -8 10 -11 10 -2 0
-4 -4 -4 -10z"/>
<path d="M1992 1025 c4 -4 -6 -18 -22 -30 -24 -18 -27 -24 -15 -28 8 -4 14 -1
12 6 -1 7 4 11 11 9 8 -1 11 2 7 8 -3 5 1 10 9 10 19 0 21 16 4 26 -7 4 -10 4
-6 -1z"/>
<path d="M1583 1003 c-10 -10 -17 -17 -14 -16 2 2 10 -5 17 -15 9 -13 9 -19 1
-25 -8 -6 -6 -7 5 -4 9 3 19 1 21 -6 2 -7 8 -8 13 -4 5 5 1 13 -8 18 -10 6
-23 19 -29 31 -10 18 -9 20 5 15 10 -4 15 -3 11 2 -3 5 1 12 7 14 8 4 9 6 2 6
-7 1 -20 -7 -31 -16z"/>
<path d="M1668 1013 c6 -2 18 -2 25 0 6 3 1 5 -13 5 -14 0 -19 -2 -12 -5z"/>
<path d="M1706 994 c-8 -20 0 -32 14 -18 5 5 5 15 1 22 -6 11 -10 10 -15 -4z"/>
<path d="M1617 986 c-4 -10 -3 -15 3 -11 6 3 10 1 10 -6 0 -7 3 -10 6 -6 3 3
2 13 -4 22 -8 16 -9 16 -15 1z"/>
<path d="M1653 976 c0 -18 3 -24 9 -18 7 7 7 16 0 28 -8 14 -9 13 -9 -10z"/>
<path d="M1814 985 c-19 -15 -19 -15 1 -8 18 6 18 5 6 -10 -9 -11 -10 -17 -2
-17 6 0 11 5 11 11 0 5 5 7 10 4 6 -3 10 -1 10 4 0 6 -5 11 -11 11 -5 0 -7 5
-4 10 9 14 2 12 -21 -5z"/>
<path d="M1075 980 c-3 -5 -1 -10 4 -10 6 0 11 5 11 10 0 6 -2 10 -4 10 -3 0
-8 -4 -11 -10z"/>
<path d="M1235 980 c-3 -5 -1 -10 4 -10 6 0 11 5 11 10 0 6 -2 10 -4 10 -3 0
-8 -4 -11 -10z"/>
<path d="M1296 976 c6 -15 4 -17 -6 -11 -8 5 -11 4 -6 -3 3 -6 2 -13 -4 -17
-5 -3 -10 -11 -10 -17 0 -6 10 1 21 16 17 21 19 30 10 39 -9 9 -11 8 -5 -7z"/>
<path d="M1511 983 c3 -21 -2 -26 -12 -13 -9 13 -10 13 -6 0 2 -8 9 -15 16
-15 22 0 31 -28 13 -42 -15 -13 -14 -13 5 -3 12 5 25 15 29 22 4 6 3 8 -2 5
-6 -3 -15 3 -22 14 -8 12 -9 19 -1 19 5 0 7 5 4 10 -7 12 -26 14 -24 3z"/>
<path d="M1748 983 c7 -3 16 -2 19 1 4 3 -2 6 -13 5 -11 0 -14 -3 -6 -6z"/>
<path d="M1897 970 c10 -11 19 -20 21 -20 1 0 -2 9 -8 20 -6 11 -15 20 -20 20
-6 0 -2 -9 7 -20z"/>
<path d="M1410 971 c0 -5 5 -13 10 -16 6 -3 10 -2 10 4 0 5 -4 13 -10 16 -5 3
-10 2 -10 -4z"/>
<path d="M1770 970 c-9 -6 -10 -10 -3 -10 6 0 15 5 18 10 8 12 4 12 -15 0z"/>
<path d="M850 961 c0 -5 7 -12 16 -15 14 -5 15 -4 4 9 -14 17 -20 19 -20 6z"/>
<path d="M894 958 c-4 -6 0 -16 9 -23 9 -7 14 -15 10 -19 -4 -4 1 -4 12 0 11
5 14 9 7 12 -7 2 -10 8 -7 13 4 5 -1 6 -10 3 -11 -5 -14 -2 -9 10 7 18 -1 22
-12 4z"/>
<path d="M950 960 c-11 -7 -11 -10 -2 -10 7 0 10 -4 7 -10 -4 -6 1 -7 11 -3
11 4 13 8 6 11 -7 2 -10 8 -6 13 7 11 3 11 -16 -1z"/>
<path d="M1007 953 c4 -11 3 -14 -5 -9 -8 5 -10 1 -5 -10 4 -11 8 -13 11 -6 2
7 8 9 14 6 6 -4 5 2 -1 15 -14 25 -23 28 -14 4z"/>
<path d="M1050 961 c0 -6 5 -11 11 -11 5 0 8 -4 5 -8 -2 -4 4 -8 14 -8 10 0
16 4 14 8 -3 4 0 8 5 8 6 0 11 5 11 11 0 8 -5 8 -15 -1 -12 -10 -18 -10 -30 0
-10 9 -15 9 -15 1z"/>
<path d="M1167 953 c4 -11 3 -14 -5 -9 -8 5 -10 1 -5 -10 4 -11 8 -13 11 -6 2
7 8 9 14 6 6 -4 5 2 -1 15 -14 25 -23 28 -14 4z"/>
<path d="M1210 961 c0 -6 5 -11 11 -11 5 0 8 -4 5 -8 -2 -4 4 -8 14 -8 10 0
16 4 14 8 -3 4 0 8 5 8 6 0 11 5 11 11 0 8 -5 8 -15 -1 -12 -10 -18 -10 -30 0
-10 9 -15 9 -15 1z"/>
<path d="M1370 963 c0 -15 31 -53 43 -53 7 0 4 5 -5 11 -10 5 -18 16 -18 24 0
8 -4 17 -10 20 -5 3 -10 2 -10 -2z"/>
<path d="M1550 960 c0 -5 5 -10 10 -10 6 0 10 5 10 10 0 6 -4 10 -10 10 -5 0
-10 -4 -10 -10z"/>
<path d="M1676 954 c-3 -9 -4 -19 -1 -22 3 -3 5 1 6 9 0 8 4 6 9 -6 6 -13 9
-15 9 -5 0 8 -3 21 -8 28 -6 11 -10 10 -15 -4z"/>
<path d="M1720 960 c-13 -8 -13 -10 2 -10 9 0 20 5 23 10 8 13 -5 13 -25 0z"/>
<path d="M1868 959 c-20 -11 -24 -29 -7 -29 5 0 7 5 3 11 -4 8 1 9 17 5 13 -3
18 -3 11 0 -6 3 -10 10 -6 15 7 11 3 11 -18 -2z"/>
<path d="M1790 949 c0 -5 -5 -7 -11 -4 -6 4 -5 -2 2 -13 7 -12 16 -19 20 -16
4 2 10 -2 12 -8 4 -10 6 -10 6 0 1 7 -5 15 -13 18 -8 3 -12 12 -9 20 3 8 2 14
-1 14 -3 0 -6 -5 -6 -11z"/>
<path d="M1115 939 c-11 -16 -1 -19 13 -3 7 8 8 14 3 14 -5 0 -13 -5 -16 -11z"/>
<path d="M1742 930 c-7 -12 -8 -20 -2 -20 5 0 10 5 10 11 0 5 4 7 10 4 6 -3 7
1 4 9 -8 20 -7 20 -22 -4z"/>
<path d="M1027 918 c-10 -11 -16 -22 -13 -26 6 -6 35 27 36 41 0 10 -2 8 -23
-15z"/>
<path d="M1187 918 c-10 -11 -16 -22 -13 -26 6 -6 35 27 36 41 0 10 -2 8 -23
-15z"/>
<path d="M1430 930 c0 -5 5 -10 10 -10 6 0 10 5 10 10 0 6 -4 10 -10 10 -5 0
-10 -4 -10 -10z"/>
<path d="M867 923 c-13 -12 -7 -42 10 -51 10 -6 14 -16 9 -27 -5 -14 -9 -15
-21 -5 -9 7 -15 8 -15 2 0 -17 28 -22 40 -7 13 16 4 58 -11 50 -5 -4 -9 4 -9
16 0 21 1 21 18 6 26 -24 36 -21 12 3 -22 22 -24 23 -33 13z"/>
<path d="M970 926 c0 -2 7 -9 15 -16 13 -11 14 -10 9 4 -5 14 -24 23 -24 12z"/>
<path d="M1130 926 c0 -2 7 -9 15 -16 13 -11 14 -10 9 4 -5 14 -24 23 -24 12z"/>
<path d="M1584 915 c11 -8 22 -12 25 -9 6 6 -19 24 -34 24 -5 -1 -1 -7 9 -15z"/>
<path d="M950 911 c0 -5 5 -13 10 -16 6 -3 10 -2 10 4 0 5 -4 13 -10 16 -5 3
-10 2 -10 -4z"/>
<path d="M1050 903 c-12 -15 -12 -16 0 -5 17 14 54 16 45 2 -3 -5 -1 -10 5
-10 7 0 10 6 8 13 -7 19 -43 20 -58 0z"/>
<path d="M1210 903 c-12 -15 -12 -16 0 -5 17 14 54 16 45 2 -3 -5 -1 -10 5
-10 7 0 10 6 8 13 -7 19 -43 20 -58 0z"/>
<path d="M1620 900 c-6 -12 -17 -17 -28 -14 -13 4 -13 3 2 -7 15 -9 21 -9 24
0 2 6 10 18 19 26 8 8 10 15 4 15 -6 0 -15 -9 -21 -20z"/>
<path d="M1652 904 c-7 -8 -8 -14 -3 -14 10 0 25 19 20 25 -2 1 -10 -3 -17
-11z"/>
<path d="M1330 900 c0 -5 5 -10 10 -10 6 0 10 5 10 10 0 6 -4 10 -10 10 -5 0
-10 -4 -10 -10z"/>
<path d="M1365 900 c-3 -6 1 -7 9 -4 18 7 21 14 7 14 -6 0 -13 -4 -16 -10z"/>
<path d="M1418 898 c-8 -5 0 -6 21 -3 30 5 33 4 21 -10 -8 -10 -9 -15 -1 -15
6 0 11 5 11 10 0 6 0 13 0 18 0 10 -36 11 -52 0z"/>
<path d="M1550 900 c0 -5 5 -10 10 -10 6 0 10 5 10 10 0 6 -4 10 -10 10 -5 0
-10 -4 -10 -10z"/>
<path d="M1687 892 c3 -7 9 -10 12 -5 3 4 10 11 15 15 4 4 -1 6 -12 5 -12 -1
-18 -6 -15 -15z"/>
<path d="M1756 902 c-2 -4 4 -8 14 -8 10 0 16 4 14 8 -3 4 -9 8 -14 8 -5 0
-11 -4 -14 -8z"/>
<path d="M1497 890 c13 -13 56 -23 49 -12 -3 5 -17 12 -32 15 -14 2 -22 1 -17
-3z"/>
<path d="M1720 890 c-9 -6 -10 -10 -3 -10 6 0 15 5 18 10 8 12 4 12 -15 0z"/>
<path d="M930 879 c0 -5 -4 -8 -8 -5 -4 2 -8 -4 -8 -15 0 -24 0 -24 20 6 9 14
12 25 6 25 -5 0 -10 -5 -10 -11z"/>
<path d="M1001 871 c13 -10 29 -16 36 -14 15 6 17 23 3 23 -5 0 -10 -5 -10
-12 0 -6 -7 -4 -18 5 -10 10 -22 17 -26 17 -5 0 2 -8 15 -19z"/>
<path d="M1081 871 c13 -10 29 -16 36 -14 15 6 17 23 3 23 -5 0 -10 -5 -10
-12 0 -6 -7 -4 -18 5 -10 10 -22 17 -26 17 -5 0 2 -8 15 -19z"/>
<path d="M1161 871 c13 -10 29 -16 36 -14 15 6 17 23 3 23 -5 0 -10 -5 -10
-12 0 -6 -7 -4 -18 5 -10 10 -22 17 -26 17 -5 0 2 -8 15 -19z"/>
<path d="M1241 871 c13 -10 29 -16 36 -14 15 6 17 23 3 23 -5 0 -10 -5 -10
-12 0 -6 -7 -4 -18 5 -10 10 -22 17 -26 17 -5 0 2 -8 15 -19z"/>
<path d="M1321 871 c17 -13 29 -16 41 -10 9 5 18 6 21 1 2 -4 2 -1 1 6 -4 15
8 16 24 0 19 -19 42 -19 34 0 -4 11 -7 12 -10 3 -3 -9 -9 -8 -23 5 -14 13 -22
14 -32 5 -8 -6 -17 -8 -20 -4 -4 3 -7 0 -7 -7 0 -10 -5 -9 -18 3 -10 10 -22
17 -26 17 -5 0 2 -9 15 -19z"/>
<path d="M946 855 c-9 -14 -13 -25 -9 -25 10 0 36 40 30 46 -2 3 -12 -7 -21
-21z"/>
<path d="M1476 863 c-6 -14 -5 -15 5 -6 7 7 10 15 7 18 -3 3 -9 -2 -12 -12z"/>
<path d="M902 813 c2 -10 10 -17 17 -15 8 2 11 -5 7 -20 -3 -13 -3 -17 0 -10
3 6 10 9 16 6 6 -4 5 3 -2 15 -6 12 -16 18 -22 15 -7 -5 -9 -1 -5 9 3 10 2 17
-4 17 -6 0 -9 -8 -7 -17z"/>
<path d="M948 813 c6 -2 9 -10 6 -15 -4 -7 -2 -8 4 -4 18 11 14 26 -5 25 -11
0 -13 -3 -5 -6z"/>
<path d="M868 783 c6 -2 18 -2 25 0 6 3 1 5 -13 5 -14 0 -19 -2 -12 -5z"/>
<path d="M935 750 c-4 -6 1 -7 11 -3 13 5 15 3 9 -7 -5 -9 -4 -11 3 -6 7 4 12
11 12 17 0 12 -27 12 -35 -1z"/>
<path d="M914 715 c-4 -8 -10 -12 -15 -9 -5 3 -6 -3 -2 -12 4 -11 8 -13 11 -6
2 7 8 10 13 7 5 -4 6 1 3 10 -5 11 -2 14 12 8 12 -4 15 -3 10 5 -10 16 -26 15
-32 -3z"/>
<path d="M850 698 c0 -9 5 -20 10 -23 13 -8 13 5 0 25 -8 13 -10 13 -10 -2z"/>
<path d="M948 693 c6 -2 9 -10 6 -15 -4 -7 -2 -8 4 -4 18 11 14 26 -5 25 -11
0 -13 -3 -5 -6z"/>
<path d="M930 672 c0 -7 -4 -10 -10 -7 -6 3 -7 -1 -3 -10 4 -12 8 -13 13 -5 5
8 13 5 25 -11 10 -13 15 -17 12 -8 -3 9 0 23 6 30 10 11 9 11 -5 0 -14 -10
-18 -9 -27 6 -6 11 -11 13 -11 5z"/>
<path d="M890 649 c7 -11 14 -19 16 -16 7 7 -7 37 -17 37 -6 0 -5 -9 1 -21z"/>
<path d="M860 653 c0 -7 5 -15 10 -18 6 -4 8 -11 5 -16 -4 -5 -1 -9 4 -9 15 0
13 11 -4 34 -8 11 -15 15 -15 9z"/>
<path d="M930 620 c0 -5 5 -10 10 -10 6 0 10 5 10 10 0 6 -4 10 -10 10 -5 0
-10 -4 -10 -10z"/>
<path d="M898 600 c-11 -18 -14 -18 -30 -3 -25 22 -23 8 2 -17 11 -11 20 -15
20 -9 0 5 4 7 10 4 6 -3 7 1 4 9 -9 24 4 19 31 -10 23 -25 45 -25 45 -1 0 7
-4 6 -10 -3 -5 -8 -12 -11 -16 -7 -4 4 1 16 11 27 17 18 17 20 2 14 -9 -3 -17
-10 -17 -15 0 -5 -9 -4 -19 3 -11 7 -17 16 -15 20 3 4 3 8 0 8 -3 0 -11 -9
-18 -20z"/>
<path d="M855 560 c3 -5 8 -10 11 -10 2 0 4 5 4 10 0 6 -5 10 -11 10 -5 0 -7
-4 -4 -10z"/>
<path d="M907 559 c-9 -6 -14 -15 -11 -21 5 -7 1 -9 -9 -5 -10 3 -17 2 -17 -4
0 -6 8 -9 18 -7 9 2 16 10 14 17 -2 8 5 11 20 7 13 -3 17 -3 10 0 -6 3 -10 10
-6 15 7 11 4 11 -19 -2z"/>
<path d="M966 524 c-5 -13 -9 -14 -21 -4 -9 8 -15 8 -15 2 0 -6 6 -13 13 -15
9 -4 8 -8 -3 -16 -8 -5 -12 -13 -8 -16 3 -3 16 8 28 25 12 17 20 33 17 36 -2
3 -7 -3 -11 -12z"/>
<path d="M912 500 c0 -14 2 -19 5 -12 2 6 2 18 0 25 -3 6 -5 1 -5 -13z"/>
<path d="M961 477 c-13 -21 -12 -21 5 -5 10 10 16 20 13 22 -3 3 -11 -5 -18
-17z"/>
<path d="M870 470 c0 -5 7 -6 17 -3 9 4 14 2 10 -3 -3 -6 3 -16 15 -23 11 -7
17 -8 14 -3 -3 6 -3 12 1 15 5 2 3 2 -4 1 -6 -2 -14 4 -17 12 -6 16 -36 20
-36 4z"/>
<path d="M970 452 c0 -7 -6 -11 -12 -9 -7 1 -12 -6 -12 -15 1 -10 -2 -18 -7
-18 -5 0 -9 -5 -9 -11 0 -8 4 -8 14 1 8 6 12 19 9 27 -4 10 -2 14 5 9 12 -7
28 12 18 21 -3 4 -6 1 -6 -5z"/>
<path d="M855 440 c-3 -5 -1 -10 4 -10 6 0 11 5 11 10 0 6 -2 10 -4 10 -3 0
-8 -4 -11 -10z"/>
<path d="M882 432 c2 -8 7 -13 12 -12 5 1 13 -4 18 -12 8 -11 9 -11 6 0 -2 8
-7 13 -12 12 -5 -1 -13 4 -18 12 -8 11 -9 11 -6 0z"/>
<path d="M961 397 c-13 -21 -12 -21 5 -5 10 10 16 20 13 22 -3 3 -11 -5 -18
-17z"/>
<path d="M874 402 c3 -6 0 -13 -6 -16 -7 -3 -2 -3 11 0 15 4 21 2 17 -4 -4 -6
3 -16 15 -22 12 -7 19 -8 15 -2 -3 6 0 13 6 16 7 3 2 3 -11 0 -15 -4 -21 -2
-17 4 4 6 -3 16 -15 22 -12 7 -19 8 -15 2z"/>
<path d="M970 371 c0 -7 -4 -10 -8 -7 -5 3 -16 -4 -25 -15 -9 -10 -12 -19 -7
-19 6 0 13 7 16 15 4 8 10 13 14 10 10 -6 24 14 16 22 -3 4 -6 1 -6 -6z"/>
<path d="M970 332 c0 -7 -5 -11 -12 -9 -15 3 -21 -24 -9 -42 10 -15 31 -7 30
12 0 9 -2 8 -6 -1 -6 -16 -23 -6 -23 14 0 8 4 13 9 9 11 -6 26 13 17 22 -3 4
-6 1 -6 -5z"/>
<path d="M882 305 c-6 -14 -10 -25 -8 -25 2 0 11 11 20 25 9 14 13 25 8 25 -5
0 -14 -11 -20 -25z"/>
<path d="M906 295 c-9 -14 -12 -25 -6 -25 5 0 10 5 10 11 0 5 4 8 8 5 4 -2 8
4 8 15 0 24 0 24 -20 -6z"/>
<path d="M855 299 c-4 -6 -5 -12 -2 -15 2 -3 7 2 10 11 7 17 1 20 -8 4z"/>
<path d="M860 259 c0 -5 5 -7 10 -4 6 3 10 8 10 11 0 2 -4 4 -10 4 -5 0 -10
-5 -10 -11z"/>
<path d="M930 260 c8 -5 20 -10 25 -10 6 0 3 5 -5 10 -8 5 -19 10 -25 10 -5 0
-3 -5 5 -10z"/>
<path d="M907 244 c3 -7 9 -14 14 -14 4 0 7 -6 5 -12 -1 -7 -1 -10 1 -5 3 4 9
4 15 1 5 -3 4 3 -4 15 -15 25 -40 37 -31 15z"/>
<path d="M868 239 c-22 -13 -23 -25 -2 -33 15 -6 15 -4 3 10 -12 15 -11 16 11
11 14 -4 19 -4 12 -1 -6 3 -10 10 -6 15 7 11 3 11 -18 -2z"/>
<path d="M952 204 c-7 -8 -8 -14 -3 -14 10 0 25 19 20 25 -2 1 -10 -3 -17 -11z"/>
<path d="M887 196 c-11 -27 43 -51 58 -26 3 6 -1 7 -9 4 -9 -3 -23 -3 -32 0
-13 5 -14 9 -4 21 7 9 8 15 2 15 -5 0 -12 -6 -15 -14z"/>
<path d="M842 180 c0 -14 2 -19 5 -12 2 6 2 18 0 25 -3 6 -5 1 -5 -13z"/>
<path d="M815 161 c-3 -6 -11 -8 -17 -5 -7 4 -8 2 -4 -5 4 -6 0 -14 -8 -17 -9
-3 -16 -11 -16 -16 0 -6 8 -4 17 3 14 12 16 12 11 -2 -3 -9 -2 -22 3 -30 7
-11 9 -11 9 -1 0 7 5 10 11 6 6 -3 4 5 -6 19 -15 24 -15 26 2 35 10 6 15 13
11 17 -3 3 -9 1 -13 -4z"/>
<path d="M860 156 c0 -2 7 -6 15 -10 8 -3 15 -1 15 4 0 6 -7 10 -15 10 -8 0
-15 -2 -15 -4z"/>
<path d="M950 150 c0 -5 5 -10 10 -10 6 0 10 5 10 10 0 6 -4 10 -10 10 -5 0
-10 -4 -10 -10z"/>
<path d="M468 130 c3 -8 4 -23 4 -32 -1 -15 2 -14 19 3 23 23 25 37 2 18 -15
-12 -16 -12 -10 4 4 10 3 16 -2 12 -5 -3 -11 -2 -14 2 -2 5 -2 1 1 -7z"/>
<path d="M556 138 c5 -8 2 -9 -9 -5 -24 9 -21 0 4 -14 13 -6 19 -7 15 -1 -3 6
-1 12 6 14 7 3 5 7 -6 11 -11 5 -15 3 -10 -5z"/>
<path d="M644 135 c-10 -8 -14 -15 -9 -15 6 0 3 -5 -5 -11 -13 -9 -13 -10 0
-6 8 2 14 9 13 15 -1 5 4 13 12 16 17 6 41 -30 36 -54 -2 -12 0 -12 9 -3 10 9
8 18 -9 42 -26 36 -22 35 -47 16z"/>
<path d="M830 140 c-11 -7 -11 -10 -2 -10 7 0 10 -5 6 -11 -4 -8 0 -8 15 0 25
14 28 23 4 14 -11 -4 -14 -3 -9 5 9 14 6 15 -14 2z"/>
<path d="M906 138 c3 -4 0 -8 -5 -8 -6 0 -11 -5 -11 -11 0 -8 5 -8 15 1 12 10
18 10 30 0 10 -9 15 -9 15 -1 0 6 -5 11 -11 11 -5 0 -8 4 -5 8 2 4 -4 8 -14 8
-10 0 -16 -4 -14 -8z"/>
<path d="M583 115 c-8 -22 5 -31 20 -15 10 10 9 11 -2 5 -11 -6 -13 -4 -8 8 3
10 4 17 1 17 -2 0 -7 -7 -11 -15z"/>
<path d="M521 108 c-1 -20 14 -24 25 -6 4 6 3 8 -4 4 -5 -3 -13 0 -15 6 -3 8
-6 6 -6 -4z"/>
<path d="M651 97 c-13 -20 -13 -21 2 -8 14 11 17 11 17 1 0 -8 3 -11 6 -7 3 3
2 12 -3 21 -7 13 -11 12 -22 -7z"/>
<path d="M751 112 c-1 -8 -6 -10 -13 -6 -10 5 -10 4 -1 -6 15 -16 28 -8 20 12
-4 11 -6 11 -6 0z"/>
<path d="M838 88 c-10 -10 -13 -18 -7 -18 5 0 7 -4 4 -10 -3 -6 1 -7 10 -4 11
5 14 2 9 -12 -6 -16 -5 -17 7 -6 12 11 11 15 -3 26 -13 10 -14 16 -6 24 6 6
10 13 7 15 -2 2 -12 -5 -21 -15z"/>
<path d="M910 106 c0 -2 7 -7 16 -10 8 -3 12 -2 9 4 -6 10 -25 14 -25 6z"/>
<path d="M883 93 c-15 -5 -17 -23 -4 -23 5 0 11 7 15 15 3 8 4 15 3 14 -1 0
-8 -3 -14 -6z"/>
<path d="M950 91 c0 -5 7 -11 14 -14 10 -4 13 -1 9 9 -6 15 -23 19 -23 5z"/>
<path d="M450 84 c0 -10 45 -54 55 -54 3 0 0 9 -7 19 -7 11 -15 18 -19 15 -4
-2 -12 4 -18 13 -6 10 -11 13 -11 7z"/>
<path d="M506 65 c20 -30 20 -30 20 -6 0 11 -4 17 -8 15 -4 -3 -8 0 -8 5 0 6
-5 11 -10 11 -6 0 -3 -11 6 -25z"/>
<path d="M547 83 c-13 -12 -7 -40 11 -54 14 -11 15 -11 5 1 -15 17 -17 54 -3
45 6 -3 10 -1 10 4 0 12 -13 14 -23 4z"/>
<path d="M592 74 c-12 -8 -22 -21 -22 -27 0 -7 5 -4 11 6 5 9 16 17 24 17 8 0
17 5 20 10 9 15 -8 12 -33 -6z"/>
<path d="M716 75 c-9 -26 -7 -32 5 -12 6 10 9 21 6 23 -2 3 -7 -2 -11 -11z"/>
<path d="M752 74 c-12 -8 -22 -21 -22 -27 0 -7 5 -4 11 6 5 9 16 17 24 17 8 0
17 5 20 10 9 15 -8 12 -33 -6z"/>
<path d="M914 82 c3 -6 3 -12 -1 -15 -5 -2 -2 -2 6 0 7 2 21 -2 29 -9 12 -10
14 -10 8 -1 -4 7 -16 18 -28 24 -12 7 -18 7 -14 1z"/>
<path d="M650 60 c0 -5 5 -10 10 -10 6 0 10 5 10 10 0 6 -4 10 -10 10 -5 0
-10 -4 -10 -10z"/>
<path d="M682 56 c4 -5 0 -15 -10 -23 -15 -13 -15 -13 5 -4 16 8 23 8 26 -2 4
-7 6 -8 6 -1 1 6 -7 18 -16 25 -10 7 -15 9 -11 5z"/>
<path d="M880 56 c0 -2 7 -9 15 -16 9 -7 15 -8 15 -2 0 5 -7 12 -15 16 -8 3
-15 4 -15 2z"/>
<path d="M614 39 c-5 -9 -2 -10 9 -6 9 3 18 2 21 -4 2 -5 3 -4 2 3 -3 17 -23
21 -32 7z"/>
<path d="M775 40 c-4 -7 3 -8 21 -4 17 4 25 3 21 -3 -3 -5 0 -10 8 -10 11 0
12 4 4 14 -14 16 -45 17 -54 3z"/>
</g>
</svg>
